<svg width="29" height="52" viewBox="0 0 29 52" fill="none" xmlns="http://www.w3.org/2000/svg">
<path d="M28.7939 28.9257C22.6559 37.0268 19.5477 42.3101 15.4746 51.2424C15.1138 52.0336 13.9821 52.0346 13.6199 51.2441C9.51342 42.281 6.38227 36.9979 0.208729 28.9154C0.029068 28.6802 -0.0398623 28.3718 0.0227072 28.0825C2.28089 17.6418 2.98413 11.4648 3.02612 1.00593C3.02835 0.4506 3.47831 0 4.03365 0H24.9588C25.5202 0 25.9727 0.459964 25.9664 1.02132C25.8487 11.5218 26.4893 17.6999 28.9725 28.0737C29.0429 28.3679 28.9766 28.6845 28.7939 28.9257Z" fill="url(#paint0_linear_1_8)"/>
<defs>
<linearGradient id="paint0_linear_1_8" x1="25.0349" y1="-0.045093" x2="-0.138944" y2="32.6342" gradientUnits="userSpaceOnUse">
<stop offset="0.0402724" stop-color="white"/>
<stop offset="0.214006" stop-color="#D1D1D1"/>
<stop offset="0.503433" stop-color="#616161"/>
<stop offset="0.84462" stop-color="#281C29"/>
</linearGradient>
</defs>
</svg>
