<svg width="104" height="181" viewBox="0 0 104 181" fill="none" xmlns="http://www.w3.org/2000/svg">
<path d="M102.221 102.674C81.2566 130.095 70.2376 148.426 56.4236 178.069C54.604 181.973 49.0071 181.978 47.1804 178.077C33.2486 148.324 22.1477 129.993 1.05182 102.623C0.144608 101.446 -0.201682 99.9075 0.114713 98.4555C7.95044 62.4958 10.4692 40.829 10.6782 5.01433C10.6943 2.251 12.9327 0 15.6961 0H87.5259C90.3198 0 92.5703 2.29908 92.5439 5.0928C92.2042 41.0311 94.5151 62.6968 103.121 98.4113C103.477 99.8882 103.144 101.467 102.221 102.674Z" fill="url(#paint0_linear_1_10)"/>
<defs>
<linearGradient id="paint0_linear_1_10" x1="51.6503" y1="-5.0151e-08" x2="53.1819" y2="174.121" gradientUnits="userSpaceOnUse">
<stop offset="0.0404142" stop-color="white"/>
<stop offset="0.188033" stop-color="#D1D1D1"/>
<stop offset="0.405478" stop-color="#616161"/>
<stop offset="0.696634" stop-color="#281C29"/>
</linearGradient>
</defs>
</svg>
